<svg xmlns="http://www.w3.org/2000/svg" xmlns:xlink="http://www.w3.org/1999/xlink" width="964" height="1080" viewBox="0 0 964 1080"><defs><style>.a{fill:url(#a);}.b{fill:#d1e9ff;}.c{fill:#dcefff;}.d{fill:#455eef;}.e{fill:#3344a8;}.f{fill:#448aff;}.g{fill:#ffe8d0;}.h{fill:#dadffd;}.i{fill:#f79325;}.j{fill:#fff;}.k{fill:#ffc107;}.l{fill:#ffeb3b;}.m{fill:#aab7fd;}.n{fill:#fff9c4;}.o{fill:#f7931e;}.p{fill:#fec12d;}.q{fill:#d4145a;}.r{fill:#ffb2b2;}.s{fill:#cb68e0;}.t{fill:#f88;}.u{fill:#ff928f;}.v{fill:#2dc3ce;}.w{fill:#e82e7a;}.x{fill:#909090;}.y{fill:#b7b7b7;}.z{fill:#48dae5;}.aa{fill:#c058d6;}</style><linearGradient id="a" x1="0.5" y1="0.053" x2="0.5" y2="1" gradientUnits="objectBoundingBox"><stop offset="0" stop-color="#fff" stop-opacity="0"/><stop offset="1" stop-color="#5653fd" stop-opacity="0.18"/></linearGradient></defs><g transform="translate(-956)"><path class="a" d="M0,0H964V1080H0Z" transform="translate(956)"/><g transform="translate(1026.742 175.635)"><g transform="translate(2.258 234.21)"><path class="b" d="M118.348,999.923h56.289l4.742-55.632H114.344Z" transform="translate(-84.927 -630.515)"/><path class="b" d="M169.022,671.91l-3.648-1.426c9.885-25.3,1.645-126.742-3.806-193.87-2.429-29.9-4.348-53.525-4.348-64.756h3.917c0,11.072,1.913,34.623,4.334,64.44C171.281,547.819,179.236,645.771,169.022,671.91Z" transform="translate(-106.812 -358.753)"/><path class="c" d="M85.235,770.633c-18.271-12.687-30.977-40.849-30.977-40.849S82.73,732.229,101,744.917s19.422,30.813,19.422,30.813S103.507,783.321,85.235,770.633Z" transform="translate(-54.258 -521.028)"/><path class="c" d="M101.821,570.382c-12.247-18.569-13.577-49.435-13.577-49.435s25.524,12.851,37.77,31.42,6.58,35.824,6.58,35.824S114.068,588.951,101.821,570.382Z" transform="translate(-71.605 -414.434)"/><path class="c" d="M77.709,351c-14.24-17.088-19-47.614-19-47.614s23.328,15.17,41.037,27.014c18.49,12.366,10.531,34.868,10.531,34.868S91.949,368.092,77.709,351Z" transform="translate(-56.529 -303.389)"/><path class="c" d="M210.13,646.211c10.884-19.4,10-50.281,10-50.281s-24.537,14.647-35.422,34.046-4,36.2-4,36.2S199.245,665.61,210.13,646.211Z" transform="translate(-117.705 -452.706)"/><path class="c" d="M197.516,437.6c18.271-12.688,30.977-40.849,30.977-40.849s-28.471,2.445-46.743,15.132S162.329,442.7,162.329,442.7,179.246,450.29,197.516,437.6Z" transform="translate(-109.419 -351.044)"/><path class="c" d="M106.753,928.893H173.87a2.926,2.926,0,0,0,2.719-2.578l2.462-13.431c.373-2.033-.948-3.952-2.72-3.952h-71.9c-1.758,0-3.076,1.891-2.726,3.913l2.318,13.431A2.934,2.934,0,0,0,106.753,928.893Z" transform="translate(-78.449 -612.468)"/></g><g transform="translate(102.211 179.365)"><path class="d" d="M0,0H562.605V342.941H0Z" transform="translate(17.116 17.494)"/><path class="e" d="M16.352,0H580.485a16.352,16.352,0,0,1,16.352,16.352h0A16.352,16.352,0,0,1,580.485,32.7H16.352A16.352,16.352,0,0,1,0,16.352H0A16.352,16.352,0,0,1,16.352,0Z"/><path class="e" d="M16.352,0H580.485a16.352,16.352,0,0,1,16.352,16.352h0A16.352,16.352,0,0,1,580.485,32.7H16.352A16.352,16.352,0,0,1,0,16.352H0A16.352,16.352,0,0,1,16.352,0Z" transform="translate(0 341.743)"/></g><g transform="translate(139.291 234.033)"><path class="f" d="M0,0H518.092V1.958H0Z" transform="translate(0.042 271.103)"/><path class="f" d="M0,0H518.092V1.958H0Z" transform="translate(0.042 219.354)"/><path class="f" d="M0,0H518.092V1.958H0Z" transform="translate(0.042 168.787)"/><path class="f" d="M0,0H518.092V1.958H0Z" transform="translate(0.042 117.038)"/><path class="f" d="M0,0H518.092V1.958H0Z" transform="translate(0.042 64.962)"/><path class="f" d="M0,0H518.092V1.958H0Z" transform="translate(0.042 13.214)"/><path class="f" d="M0,0H1.958V258.645H0Z" transform="translate(0 13.867)"/><path class="f" d="M0,0H1.958V258.645H0Z" transform="translate(51.748 13.867)"/><path class="f" d="M0,0H1.958V258.645H0Z" transform="translate(103.966 13.867)"/><path class="f" d="M0,0H1.958V258.645H0Z" transform="translate(156.265 13.867)"/><path class="f" d="M0,0H1.958V258.645H0Z" transform="translate(207.791 13.867)"/><path class="f" d="M0,0H1.958V258.645H0Z" transform="translate(260.09 13.867)"/><path class="f" d="M0,0H1.958V258.645H0Z" transform="translate(311.886 13.867)"/><path class="f" d="M0,0H1.958V258.645H0Z" transform="translate(362.534 13.867)"/><path class="f" d="M0,0H1.958V258.645H0Z" transform="translate(415.853 13.867)"/><path class="f" d="M0,0H1.958V258.645H0Z" transform="translate(465.951 13.867)"/><path class="f" d="M0,0H1.958V258.645H0Z" transform="translate(516.704 13.867)"/><g transform="translate(38.124)"><path class="g" d="M0,0H26.542V60.008H0Z" transform="translate(0 211.178)"/><path class="g" d="M387.863,475.542l-1.128-1.6L437.859,437.9l52.3,22.463,52.5-52.808,52.219,47.957,52.514,14.18,51.184-45.932,52.086-42.2L803.6,302.028l1.63,1.085L752.125,382.9l-52.3,42.369-51.919,46.594-54-14.582-.176-.162-51.009-46.846-52.112,52.417-52.514-22.556Z" transform="translate(-373.658 -296.642)"/><path class="g" d="M7.612,0h0a7.612,7.612,0,0,1,7.612,7.612h0a7.612,7.612,0,0,1-7.612,7.612h0A7.612,7.612,0,0,1,0,7.612H0A7.612,7.612,0,0,1,7.612,0Z" transform="translate(5.66 171.611)"/><path class="g" d="M7.612,0h0a7.612,7.612,0,0,1,7.612,7.612h0a7.612,7.612,0,0,1-7.612,7.612h0A7.612,7.612,0,0,1,0,7.612H0A7.612,7.612,0,0,1,7.612,0Z" transform="translate(57.817 135.401)"/><path class="g" d="M7.612,0h0a7.612,7.612,0,0,1,7.612,7.612h0a7.612,7.612,0,0,1-7.612,7.612h0A7.612,7.612,0,0,1,0,7.612H0A7.612,7.612,0,0,1,7.612,0Z" transform="translate(109.542 155.537)"/><path class="g" d="M7.612,0h0a7.612,7.612,0,0,1,7.612,7.612h0a7.612,7.612,0,0,1-7.612,7.612h0A7.612,7.612,0,0,1,0,7.612H0A7.612,7.612,0,0,1,7.612,0Z" transform="translate(161.699 105.54)"/><path class="g" d="M7.612,0h0a7.612,7.612,0,0,1,7.612,7.612h0a7.612,7.612,0,0,1-7.612,7.612h0A7.612,7.612,0,0,1,0,7.612H0A7.612,7.612,0,0,1,7.612,0Z" transform="translate(213.758 151.295)"/><path class="g" d="M7.612,0h0a7.612,7.612,0,0,1,7.612,7.612h0a7.612,7.612,0,0,1-7.612,7.612h0A7.612,7.612,0,0,1,0,7.612H0A7.612,7.612,0,0,1,7.612,0Z" transform="translate(265.915 166.442)"/><path class="g" d="M7.612,0h0a7.612,7.612,0,0,1,7.612,7.612h0a7.612,7.612,0,0,1-7.612,7.612h0A7.612,7.612,0,0,1,0,7.612H0A7.612,7.612,0,0,1,7.612,0Z" transform="translate(317.64 120.231)"/><path class="g" d="M7.612,0h0a7.612,7.612,0,0,1,7.612,7.612h0a7.612,7.612,0,0,1-7.612,7.612h0A7.612,7.612,0,0,1,0,7.612H0A7.612,7.612,0,0,1,7.612,0Z" transform="translate(369.798 77.614)"/><path class="g" d="M7.612,0h0a7.612,7.612,0,0,1,7.612,7.612h0a7.612,7.612,0,0,1-7.612,7.612h0A7.612,7.612,0,0,1,0,7.612H0A7.612,7.612,0,0,1,7.612,0Z" transform="translate(421.965)"/><path class="g" d="M0,0H26.542V97.227H0Z" transform="translate(52.157 173.959)"/><path class="g" d="M0,0H26.542V76.288H0Z" transform="translate(103.882 194.898)"/><path class="g" d="M0,0H26.542V126.073H0Z" transform="translate(156.04 145.114)"/><path class="g" d="M0,0H26.542V80.36H0Z" transform="translate(208.098 190.827)"/><path class="g" d="M0,0H26.542V65.59H0Z" transform="translate(260.256 205.597)"/><path class="g" d="M0,0H26.542V113.52H0Z" transform="translate(311.981 157.666)"/><path class="g" d="M0,0H26.542V155.081H0Z" transform="translate(364.138 116.106)"/><path class="g" d="M0,0H26.542V232.026H0Z" transform="translate(416.306 39.161)"/></g></g><g transform="translate(627.242 258.404)"><path class="h" d="M0,0H77.795V2.5H0Z" transform="matrix(0.971, -0.241, 0.241, 0.971, 3.036, 19.594)"/><path class="e" d="M2.82,0H45.329a2.82,2.82,0,0,1,2.82,2.82h0a2.82,2.82,0,0,1-2.82,2.82H2.82A2.82,2.82,0,0,1,0,2.82H0A2.82,2.82,0,0,1,2.82,0Z" transform="translate(40.088 333.285) rotate(-40.491)"/><path class="e" d="M2.82,0H45.329a2.82,2.82,0,0,1,2.82,2.82h0a2.82,2.82,0,0,1-2.82,2.82H2.82A2.82,2.82,0,0,1,0,2.82H0A2.82,2.82,0,0,1,2.82,0Z" transform="translate(112.812 337.575) rotate(-139.509)"/><path class="h" d="M0,0H77.795V2.5H0Z" transform="matrix(-0.971, -0.241, 0.241, -0.971, 153.103, 22.022)"/><path class="e" d="M2.857,0H332.364a4.056,4.056,0,0,1,4.055,4.055h0a4.056,4.056,0,0,1-4.055,4.055H2.857A2.857,2.857,0,0,1,0,5.254v-2.4A2.857,2.857,0,0,1,2.857,0Z" transform="translate(82.337 0) rotate(90)"/><path class="e" d="M0,0H150.147V8.111H0Z" transform="translate(3.208 18.572)"/><path class="e" d="M0,0H150.147V8.111H0Z" transform="translate(3.208 220.525)"/><path class="e" d="M0,0H7.81V12.418H0Z" transform="translate(0 16.418)"/><path class="e" d="M0,0H7.81V12.418H0Z" transform="translate(149.036 16.418)"/><path class="h" d="M0,0H141.229V200.946H0Z" transform="translate(7.667 23.726)"/><g transform="translate(16.667 49.242)"><path class="i" d="M1338.754,479.042a48.363,48.363,0,0,0-25.438,85.315l30.619-38.378s.007-.005.011-.009a.125.125,0,0,1,.034-.028.113.113,0,0,1,.044-.014.083.083,0,0,1,.012,0l.19-.022-5.272-46.881Z" transform="translate(-1282.116 -461.085)"/><path class="j" d="M1352.343,588.316l-20.279,25.417a48.218,48.218,0,0,0,36.015,10.621l.2-.025-5.5-48.942-.128.014Z" transform="translate(-1300.632 -510.271)"/><path class="k" d="M1437.387,520.226a48.364,48.364,0,0,0-52.821-41.53l5.271,46.877Z" transform="translate(-1327.43 -460.789)"/><path class="l" d="M1395.4,569.743l5.5,48.939a48.364,48.364,0,0,0,42.162-53.405c-.034-.3-.072-.588-.111-.881Z" transform="translate(-1332.96 -504.661)"/><path class="m" d="M36.116,0A36.116,36.116,0,1,1,0,36.116,36.116,36.116,0,0,1,36.116,0Z" transform="translate(25.926 29.904)"/><path class="e" d="M1332.148,660.656l-2.241,5.075-5.383,12.188-6.513,14.747-5.632,12.752-1.861,4.216a13.706,13.706,0,0,0-.877,1.985.644.644,0,0,1-.039.088l.634-.364H1289.49a.735.735,0,0,0,0,1.469h20.746a.72.72,0,0,0,.634-.364l2.241-5.075,5.383-12.188,6.513-14.747,5.631-12.751c.913-2.067,1.837-4.129,2.739-6.2l.039-.088c.378-.857-.887-1.6-1.269-.741Z" transform="translate(-1278.539 -553.599)"/><path class="j" d="M2.016,0H13.861a2.016,2.016,0,0,1,2.016,2.016h0a2.016,2.016,0,0,1-2.016,2.016H2.016A2.016,2.016,0,0,1,0,2.016H0A2.016,2.016,0,0,1,2.016,0Z" transform="translate(10.378 150.935)"/><path class="l" d="M2.016,0H26.611a2.016,2.016,0,0,1,2.016,2.016h0a2.016,2.016,0,0,1-2.016,2.016H2.016A2.016,2.016,0,0,1,0,2.016H0A2.016,2.016,0,0,1,2.016,0Z" transform="translate(53.659 147.533)"/><path class="l" d="M2.016,0h0A2.016,2.016,0,0,1,4.032,2.016h0A2.016,2.016,0,0,1,2.016,4.032h0A2.016,2.016,0,0,1,0,2.016H0A2.016,2.016,0,0,1,2.016,0Z" transform="translate(46.993 147.533)"/><path class="k" d="M2.016,0H26.611a2.016,2.016,0,0,1,2.016,2.016h0a2.016,2.016,0,0,1-2.016,2.016H2.016A2.016,2.016,0,0,1,0,2.016H0A2.016,2.016,0,0,1,2.016,0Z" transform="translate(53.659 156.755)"/><path class="k" d="M2.016,0h0A2.016,2.016,0,0,1,4.032,2.016h0A2.016,2.016,0,0,1,2.016,4.032h0A2.016,2.016,0,0,1,0,2.016H0A2.016,2.016,0,0,1,2.016,0Z" transform="translate(46.993 156.755)"/><path class="n" d="M2.016,0H26.611a2.016,2.016,0,0,1,2.016,2.016h0a2.016,2.016,0,0,1-2.016,2.016H2.016A2.016,2.016,0,0,1,0,2.016H0A2.016,2.016,0,0,1,2.016,0Z" transform="translate(96.324 147.533)"/><path class="n" d="M2.016,0h0A2.016,2.016,0,0,1,4.032,2.016h0A2.016,2.016,0,0,1,2.016,4.032h0A2.016,2.016,0,0,1,0,2.016H0A2.016,2.016,0,0,1,2.016,0Z" transform="translate(89.658 147.533)"/><path class="o" d="M2.016,0H26.611a2.016,2.016,0,0,1,2.016,2.016h0a2.016,2.016,0,0,1-2.016,2.016H2.016A2.016,2.016,0,0,1,0,2.016H0A2.016,2.016,0,0,1,2.016,0Z" transform="translate(96.324 156.755)"/><path class="o" d="M2.016,0h0A2.016,2.016,0,0,1,4.032,2.016h0A2.016,2.016,0,0,1,2.016,4.032h0A2.016,2.016,0,0,1,0,2.016H0A2.016,2.016,0,0,1,2.016,0Z" transform="translate(89.658 156.755)"/><path class="e" d="M2.281,0A2.281,2.281,0,1,1,0,2.281,2.281,2.281,0,0,1,2.281,0Z" transform="translate(51.843 105.23)"/><path class="e" d="M1302.16,483.956l-4.116-9.2-6.587-14.73-1.5-3.364a.72.72,0,0,0-.634-.364h-20.746a.735.735,0,0,0,0,1.469h20.746l-.634-.364,4.116,9.2,6.588,14.73,1.5,3.364c.385.861,1.651.115,1.268-.741Z" transform="translate(-1267.862 -449.484)"/><path class="i" d="M2.016,0H13.861a2.016,2.016,0,0,1,2.016,2.016h0a2.016,2.016,0,0,1-2.016,2.016H2.016A2.016,2.016,0,0,1,0,2.016H0A2.016,2.016,0,0,1,2.016,0Z" transform="translate(0.137)"/><path class="e" d="M2.281,0A2.281,2.281,0,1,1,0,2.281,2.281,2.281,0,0,1,2.281,0Z" transform="translate(31.602 33.027)"/><path class="e" d="M1469.247,512.412l5.621-13.045.8-1.864-.634.364h20.746a.735.735,0,0,0,0-1.469h-20.746a.719.719,0,0,0-.634.364l-5.621,13.045-.8,1.864c-.37.859.9,1.608,1.269.741Z" transform="translate(-1369.971 -469.954)"/><path class="p" d="M2.016,0H13.861a2.016,2.016,0,0,1,2.016,2.016h0a2.016,2.016,0,0,1-2.016,2.016H2.016A2.016,2.016,0,0,1,0,2.016H0A2.016,2.016,0,0,1,2.016,0Z" transform="translate(126.386 23.666) rotate(180)"/><path class="e" d="M2.281,0A2.281,2.281,0,1,1,0,2.281,2.281,2.281,0,0,1,2.281,0Z" transform="translate(95.474 41.059)"/><path class="e" d="M1458.623,632.8l2.167,7.146,3.458,11.4.8,2.638a.752.752,0,0,0,.708.539H1486.5a.735.735,0,0,0,0-1.469h-20.746l.708.539-2.167-7.146-3.458-11.405-.8-2.638a.735.735,0,0,0-1.416.39Z" transform="translate(-1365.212 -539.115)"/><path class="l" d="M2.016,0H13.861a2.016,2.016,0,0,1,2.016,2.016h0a2.016,2.016,0,0,1-2.016,2.016H2.016A2.016,2.016,0,0,1,0,2.016H0A2.016,2.016,0,0,1,2.016,0Z" transform="translate(121.863 111.169) rotate(180)"/><path class="e" d="M2.281,0A2.281,2.281,0,1,1,0,2.281,2.281,2.281,0,0,1,2.281,0Z" transform="translate(91.947 91.376)"/></g></g><g transform="translate(373.348 437.318)"><path class="q" d="M87.266,0A87.266,87.266,0,1,1,0,87.266,87.266,87.266,0,0,1,87.266,0Z" transform="translate(0 56.516)"/><path class="j" d="M77.276,0A77.276,77.276,0,1,1,0,77.276,77.276,77.276,0,0,1,77.276,0Z" transform="translate(9.99 66.505)"/><path class="q" d="M50.6,0A50.6,50.6,0,1,1,0,50.6,50.6,50.6,0,0,1,50.6,0Z" transform="translate(36.667 93.183)"/><path class="j" d="M24.69,0A24.69,24.69,0,1,1,0,24.69,24.69,24.69,0,0,1,24.69,0Z" transform="translate(62.576 119.092)"/><path class="e" d="M3.228,0H170.862a3.228,3.228,0,0,1,3.228,3.228h0a3.228,3.228,0,0,1-3.228,3.228H3.228A3.228,3.228,0,0,1,0,3.228H0A3.228,3.228,0,0,1,3.228,0Z" transform="translate(82.824 144.289) rotate(-45)"/><path class="q" d="M1257.385,567.246l-38.923,38.923,3.758,25.77,38.923-38.923Z" transform="translate(-1059.231 -567.246)"/><path class="q" d="M1234.3,666.966l38.923-38.923,25.77,3.758-38.923,38.923Z" transform="translate(-1067.315 -598.277)"/></g><g transform="translate(88.696 410.02)"><path class="r" d="M584.055,998.155l-15.655.833-10.935-7.525,15.946-.753Z" transform="translate(-372.082 -824.143)"/><path class="e" d="M605.219,1007.271c-1.506-4.509-13.148-4.392-17.394-7-5.166-3.176-6.189-3.995-6.189-3.995l-16.031.781.2,14.852,39.565.165A30.551,30.551,0,0,0,605.219,1007.271Z" transform="translate(-376.237 -826.984)"/><path class="r" d="M589.171,1031.933l-15.655.833-10.935-7.525,15.946-.753Z" transform="translate(-374.693 -841.384)"/><path class="e" d="M619.442,1047.26c-1.506-4.508-13.147-4.391-17.393-7-5.166-3.175-6.189-3.995-6.189-3.995l-16.031.781.2,14.852,39.565.165A30.584,30.584,0,0,0,619.442,1047.26Z" transform="translate(-383.497 -847.394)"/><path class="s" d="M347.753,785.807c6.955,18.642,16.006,50.317,1.839,64.089-16.988,16.515-65,25.927-78.712,26.579-6.827.325-49.7,5.913-72.861-6.43-19.738-10.517-21.082-34.8-17.867-78.383,4.474-60.661-2.811-92.5,53.523-97.516,39.835-3.548,22.821,21.154,59,45.544C323.451,760.438,338.84,761.915,347.753,785.807Z" transform="translate(-178.811 -672.597)"/><path class="q" d="M311.326,656.982c-6.363-7.377-16.6-7.424-18.888-5.232a5.357,5.357,0,0,0-1.778,4.227s-.449-3.814-7.647,1.115c-5.6,3.838-3.358,30.8,8.245,35.605C294.583,694.072,323.935,671.6,311.326,656.982Z" transform="translate(-230.5 -650.489)"/><path class="t" d="M0,0H15.063V29.425H0Z" transform="translate(70.462 53.638) rotate(-180)"/><path class="r" d="M288.707,689.7c1.819,4.661,7.722,14.717,11.712,14.876,4.87.194,13.193-12.893,12.743-21.436-.034-.648-4.065,1.132-7.434-.609-5.311-2.744-10.857-9.186-10.857-9.186l-3.534,9.766s-.983-3.377-2.5-4.138c-2.465-1.232-3.447,3.118-3.158,4.792C286.762,690.085,288.663,689.592,288.707,689.7Z" transform="translate(-233.33 -662.157)"/><path class="u" d="M298.708,753.476A134.792,134.792,0,0,1,291.2,737.49l15.484.975s14.716,22.222,9.456,25.827C311.042,767.787,304.027,763.4,298.708,753.476Z" transform="translate(-236.178 -694.896)"/><path class="q" d="M317.7,875.494s51.206-8.7,67.636-4.871c16.7,3.9,67.074,59.136,67.074,59.136l-15.93.942s-39.255-18.553-50.5-27.332c-5.951-4.644-12.6-13.144-12.6-13.144s-40.552,11.611-51.662.155C318.465,887.029,317.7,875.494,317.7,875.494Z" transform="translate(-249.701 -762.351)"/><path class="v" d="M371.683,809.485c-6.627-2.818-28.187-14.963-28.187-14.963L333.23,773.294l-6.089,8.178,12.7,26.621,30.8,7.83C370.853,813.759,371.423,811.642,371.683,809.485Z" transform="translate(-254.521 -713.171)"/><path class="w" d="M325.475,895.16s39.544-5.917,55.974-2.083c16.7,3.9,80.27,66.752,80.27,66.752L447.544,961.7a4.033,4.033,0,0,1-2.338-.4c-6.876-3.473-43.714-22.208-53.9-30.157-5.95-4.644-12.6-13.144-12.6-13.144s-40.552,11.61-51.662.155C323.8,914.8,325.475,895.16,325.475,895.16Z" transform="translate(-253.45 -773.65)"/><g transform="translate(72.252 64.189)"><path class="x" d="M353.342,851.3l-26.953,28.991,30.688,2.556,30.606-27.711a1.245,1.245,0,0,0-.731-2.165Z" transform="translate(-326.389 -817.175)"/><path class="y" d="M417.815,781.6l-31.442,28.422L386.606,846l31.442-28.422Z" transform="translate(-357.005 -781.598)"/><path class="j" d="M415.086,845.566a3.341,3.341,0,0,0,4.477,1.706c1.773-.709,2.817-3.825,2.108-5.6s-2.657-1.966-4.43-1.257A4.353,4.353,0,0,0,415.086,845.566Z" transform="translate(-371.549 -811.424)"/></g><path class="z" d="M287.675,738.5s.544-1.194,7.659,8.817c4.637,6.524,4.562,10.494,6.883,24.549,1.033,6.254,5.521,33.946,5.521,33.946l-15.359,20.736s-19.411-13.795-21.53-15.527c-3.831-3.131-13.663-20.495-16.355-28.983-1.2-3.775-.362-17.288,4.9-33.382,2.882-8.812,7.978-11.3,13.084-11.184.414.009,8.6,7.153,11.421,7C289.441,744.165,287.6,738.423,287.675,738.5Z" transform="translate(-217.196 -694.887)"/><path class="aa" d="M322.523,890.713c.109,3.917-23.856,3.784-33.223,2.934-16.011-1.451-75.364-1.757-78.6-30.978-1.194-10.764,23.282-89.382,22.7-71.366-.385,11.875-.077,17.517,5.564,24.815,1.531,1.98,4.762,7.166,8.6,8.8,17.328,7.38,46.426,20.945,54.182,26.093C314.412,859.422,322.407,886.543,322.523,890.713Z" transform="translate(-195.063 -720.999)"/><path class="r" d="M335.4,869.958l5.316.4s8.866,1.94,12.636.659c2-.678,7.751-1.4,7.229-4.044-.134-.679-8.209-.9-8.237-1.387-.094-1.621,3.271-1.087,2.942-2.861-.148-.8-.722-.257-1.438-.208-4.989.341-8.708-.616-11.546,2.4-.019.021-2.487-.507-6.314-1.34A40.606,40.606,0,0,1,335.4,869.958Z" transform="translate(-258.739 -758.596)"/><path class="v" d="M301.984,813.127l-26.813-8.885s2.7-38.228-2.746-40.14c-4.091-1.437-8.951.194-10.143,4.364-1.738,6.078-2.639,41.821,2.889,44.887,1.311.728,28.678,8.072,36.02,7.2C302.234,818.682,301.984,813.127,301.984,813.127Z" transform="translate(-220.736 -708.217)"/></g></g></g></svg>